# xmcd
#
# Track frame offsets:
#	150
#	1875
#	2510
#	18400
#	31515
#	42360
#	56230
#	72420
#	94300
#	109900
#	130735
#	147870
#
# Disc length: 2249 seconds
#
# Revision: 0
# Processed by: cddbd v1.5.1PL0 Copyright (c) Steve Scherf et al.
# Submitted via: EasyCDDAExtractor 4.6.9.1
#
DISCID=9708c70c
DTITLE=Bramble and Sunderman - Ivanhoe Sessions
DYEAR=1900
DGENRE=country
TTITLE0=blank
TTITLE1=blank
TTITLE2=Captain
TTITLE3=Sam and Omie's
TTITLE4=Looking for Jimmy Buffett
TTITLE5=Siren's Song
TTITLE6=Stormboards
TTITLE7=Ladyfriend
TTITLE8=Parting Ways
TTITLE9=Huntington's Train
TTITLE10=Forever Waltz
TTITLE11=Carolina Coming Home
EXTD=
EXTT0=
EXTT1=
EXTT2=
EXTT3=
EXTT4=
EXTT5=
EXTT6=
EXTT7=
EXTT8=
EXTT9=
EXTT10=
EXTT11=
PLAYORDER=
